<svg width="155" height="83" viewBox="0 0 155 83" fill="none" xmlns="http://www.w3.org/2000/svg">
<path fill-rule="evenodd" clip-rule="evenodd" d="M120.32 34.94V83H111.68V41.42L94.8 54.08H93.84L77.3723 41.6508L60.8 54.08H59.84L43.44 41.7019V83H34.8V35.1808L9.44 16.04V83H0.799999V0.0800171H1.88L34.8 24.7195V0.0800171H35.88L77.56 31.2761L119.24 0.0800171H120.32V24.7195L153.24 0.0800171H154.32V83H145.68V15.92L120.32 34.94ZM111.68 31.1863V15.92L84.3896 36.3878L94.56 44L111.68 31.1863ZM70.5641 36.5123L43.44 16.04V31.1863L60.56 44L70.5641 36.5123Z" fill="white"/>
</svg>
